{"title":"Hawaa Hawaai 2014 Hindi PRE DVD  GOPI SAHI","uid":10127720,"size":186127563,"categoryP":"video","categoryS":"movie_clips","magnet":"?xt=urn:btih:de08b016498cd905c98e8be71b4fdcb34f3e88d7&amp;dn=Hawaa+Hawaai+2014+Hindi+PRE+DVD++GOPI+SAHI&amp;tr=udp%3A%2F%2Ftracker.openbittorrent.com%3A80&amp;tr=udp%3A%2F%2Fopen.demonii.com%3A1337&amp;tr=udp%3A%2F%2Ftracker.coppersurfer.tk%3A6969&amp;tr=udp%3A%2F%2Fexodus.desync.com%3A6969","seeders":1,"leechers":0,"uploader":"jatt13","files":1,"time":1399798194,"description":"Video\nID                             : 1\nFormat                         : AVC\nFormat/Info                    : Advanced Video Codec\nFormat profile                 : &lt;a class=&quot;__cf_email__&quot; href=&quot;/cdn-cgi/l/email-protection&quot; data-cfemail=&quot;f1bc90989fb1bdc5dfc1&quot;&gt;[email&amp;#160;protected]&lt;/a&gt;&lt;script cf-hash='f9e31' type=&quot;text/javascript&quot;&gt;\n/* &lt;![CDATA[ */!function(){try{var t=&quot;currentScript&quot;in document?document.currentScript:function(){for(var t=document.getElementsByTagName(&quot;script&quot;),e=t.length;e--;)if(t[e].getAttribute(&quot;cf-hash&quot;))return t[e]}();if(t&amp;&amp;t.previousSibling){var e,r,n,i,c=t.previousSibling,a=c.getAttribute(&quot;data-cfemail&quot;);if(a){for(e=&quot;&quot;,r=parseInt(a.substr(0,2),16),n=2;a.length-n;n+=2)i=parseInt(a.substr(n,2),16)^r,e+=String.fromCharCode(i);e=document.createTextNode(e),c.parentNode.replaceChild(e,c)}}}catch(u){}}();/* ]]&gt; */&lt;/script&gt;\nFormat settings, CABAC         : Yes\nFormat settings, ReFrames      : 4 frames\nCodec ID                       : V_MPEG4/ISO/AVC\nDuration                       : 1h 45mn\nBit rate                       : 200 Kbps\nWidth                          : 640 pixels\nHeight                         : 272 pixels\nDisplay aspect ratio           : 2.35:1\nFrame rate mode                : Constant\nFrame rate                     : 23.976 fps\nColor space                    : YUV\nChroma subsampling             : 4:2:0\nBit depth                      : 8 bits\nScan type                      : Progressive\nBits/(Pixel*Frame)             : 0.048\nStream size                    : 150 MiB (84%)\nTitle                          : GOPI SAHI\nWriting library                : x264 core 130 r2273 b3065e6\nLanguage                       : English\nDefault                        : Yes\nForced                         : No\nColor primaries                : BT.601 NTSC\nTransfer characteristics       : BT.709\nMatrix coefficients            : BT.601\n\nAudio\nID                             : 2\nFormat                         : MPEG Audio\nFormat version                 : Version 1\nFormat profile                 : Layer 3\nMode                           : Joint stereo\nMode extension                 : MS Stereo\nCodec ID                       : A_MPEG/L3\nCodec ID/Hint                  : MP3\nDuration                       : 1h 45mn\nBit rate mode                  : Constant\nBit rate                       : 32.0 Kbps\nChannel count                  : 2 channels\nSampling rate                  : 44.1 KHz\nCompression mode               : Lossy\nStream size                    : 24.1 MiB (14%)\nTitle                          : GOPI SAHI\nDefault                        : Yes\nForced                         : No\n[IMG]http://i.imgur.com/qQq0RQY.jpg[/IMG]\n[IMG]http://i.imgur.com/3Dm2tWI.jpg[/IMG]\n[IMG]http://i.imgur.com/4ujscUK.jpg[/IMG]\n[IMG]http://i.imgur.com/VoYYjDb.jpg[/IMG]","torrent":{"xt":"urn:btih:de08b016498cd905c98e8be71b4fdcb34f3e88d7","amp;dn":"Hawaa+Hawaai+2014+Hindi+PRE+DVD++GOPI+SAHI","amp;tr":["udp%3A%2F%2Ftracker.openbittorrent.com%3A80","udp%3A%2F%2Fopen.demonii.com%3A1337","udp%3A%2F%2Ftracker.coppersurfer.tk%3A6969","udp%3A%2F%2Fexodus.desync.com%3A6969"],"infoHash":"de08b016498cd905c98e8be71b4fdcb34f3e88d7","infoHashBuffer":{"type":"Buffer","data":[222,8,176,22,73,140,217,5,201,142,139,231,27,79,220,179,79,62,136,215]},"announce":[],"urlList":[]}}